<svg xmlns="http://www.w3.org/2000/svg" viewBox="0 0 48 48" width="528" height="528"><path fill="#558B2F" d="M22 44c-1.9 0-3.6-1-4.5-2.2-2 .3-4.5-.2-5.6-1.8-1.8-2.4-1.2-5-.8-6.1 0-.1.1-.2.1-.2l2.8-4.2c.2-.4.7-.5 1.1-.4l12.3 4.8c.5.1.7.6.7 1.1l-1.2 6.5c0 .2-.1.3-.2.4-.1.1-1.4 1.8-4.1 2-.2.1-.4.1-.6.1z"/><path fill="#33691E" d="M24.5 41c-.5-.6-.9-1.3-1.1-2-.1-.2-.1-.4-.2-.6-.1-.2-.2-.7-.4-1.5-.7-.1-1.4-.3-2.1-.6-.2-.1-.3-.1-.5-.2l-.6-.3c-.2-.1-.3-.1-.5-.2-.7-.3-1.3-.7-1.9-1.1-.6.4-1.3.7-2 .8H15c-.3.1-1 .2-1.8.2-.7 0-1.6-.1-2.4-.4 1.8 2.2 3.9 2.3 4.8 2.1.5-.1 1-.2 1.5-.5 1.2.8 2.6 1.4 4.1 1.8.1.2.1.3.1.5.6 1.9 2.7 3.6 4.9 3.4-.7-.3-1.2-.8-1.7-1.4z"/><path fill="#7CB342" d="M13.2 35.4c-1.6 0-3.9-.4-5.4-2.5-1-1.5-1.2-4.2-.3-6-1.7-1.5-3.3-4.7-2.2-8 1-3.1 3.8-4.5 5.7-5 0-1.5.4-3.3 1.9-4.8 2.6-2.7 6-2 6.2-2 .5.1.8.6.7 1.1l.4 23.5c-.1.4-2.6 3.2-5 3.6 0-.1-.9.1-2 .1z"/><path fill="#689F38" d="M41.6 28c-1.5 1.5-3.6 1.6-4.8 1.4.8-1.7 1.2-3.5 1.2-5.4 0-7.2-5.8-13-13-13-2.9 0-5.5.9-7.6 2.5-.5-.6-.8-1.6-.9-2.3v-.5c0-.3 0-.6.1-.9v-.1c.1-.3.1-.6.2-.8 0 0 0-.1.1-.1.1-.3.2-.5.4-.8v-.1c.2-.3.4-.5.6-.8-1.1.5-3.2 1.8-3.5 3.7 0 1 .1 1.8.3 2.4C11.8 15.8 10 19.7 10 24c0 4.5 2 8.5 5.1 11.2h.2c.7-.1 1.3-.4 2-.8 1.6 1.2 3.5 2 5.6 2.4.2.8.4 1.4.4 1.5.6 2.2 2.1 3.9 4 4.5.5.1 1.1.2 1.7.2 1.1 0 2.4-.3 3.3-.9 1.4.5 3.8.6 5.5-.4 1.7-1 2.7-3.5 2.4-5.4 1.5-.8 2.4-2 2.8-3.5.3-1.6-.2-3.6-1.4-4.8z"/><path fill="#558B2F" d="M36.8 29.4c-1.6 3.5-4.8 6.2-8.6 7.2h-.1c-.5.1-.9.2-1.4.3h-.1c-.6.1-1.1.1-1.6.1-.4 0-.8 0-1.2-.1-.2 0-.5-.1-.7-.1h-.4c.2.8.4 1.4.4 1.5.1.2.1.4.2.6.6.1 1.1.1 1.7.1 5.5 0 10.3-3 12.9-7.4 1.4-.1 3.2-1.4 3.7-3.5-.2.2-.4.3-.6.5-1.4.9-3.1.9-4.2.8z"/><path fill="#9CCC65" d="M35 28c-1-.4-3.5.1-4.6 2.4-1.6-1.4-4.1-.5-5.1.9-.4-1.3-1.5-5.6-6.3-4.4l-6.8-.6C13.3 32.4 18.6 37 25 37c5.9 0 10.8-3.9 12.4-9.3L35 28z"/><path fill="#7CB342" d="M21.1 26.8c-.2.9-.5 1.7-1.1 2.2-1 .8-2.5 1.1-2.8 1-.5.6-1.2 1.1-1.9 1.3-.3.1-.6.1-1 .1-.5-.7-.9-1.4-1.2-2.2.4.1.8.2 1.2.2.2 0 .3 0 .4-.1.7-.2 1.3-1 1.6-1.8.5.3 1.1.6 1.9.6.4 0 .8-.1 1.3-.3.4-.2.8-.6 1.1-1.1.1.1.3.1.5.1zM34 27.9c-.3 0-.6.1-.9.2.4 1.4 1.5 2.7 2.7 3.1.4-.6.7-1.2 1-1.8-1.1-.2-2.1-.7-2.8-1.5z"/><path fill="#AED581" d="M41.9 20.8c1.4-2.4 1.5-5.5 0-7.5-1.2-1.7-3.2-2.6-5.4-2.5.1-2.6-1.4-5.4-5.8-6.6-1.7-.4-4.2 0-5.9 1.5-1.9-1.1-5-.5-6.5.8-1.3 1.2-2 2.6-1.9 4.2 0 .7.3 2.1.9 2.8C14.1 15.8 12 19.7 12 24c0 1.9.4 3.6 1.1 5.2.5.2 1.2.3 1.7.2.7-.2 1.3-1 1.6-1.8.7.4 1.8.9 3.2.3.9-.4 1.7-1.9 1.5-2.8 2.2 1.7 6.6-.8 5-5l2-5-1.5-3.9c-.2 0-.4 0-.6-.1 6.7.5 12 6.1 12 13 0 1.9-.4 3.8-1.2 5.4 1.4.1 3.8.1 5.3-2 .8-1.1 1-3.3.6-4.9-.2-.8-.4-1.4-.8-1.8z"/><path fill="#8BC34A" d="M25 9c-3.1 0-6 1-8.4 2.6.1.7.4 1.4.8 1.9.7-.5 1.4-.9 2.2-1.3-.3 1.5-.1 3 .6 4.3.7 1.2 1.8 2.1 3.1 2.6 0 .5-.2 2 1.2 3.3.5.4 1 .7 1.6.9.1-.3.3-.7.3-1.1l-.4-.4c-.9-1.2-.9-2.9-.3-4.3h-.2c-3 0-5.3-3-3.5-6.2h-.1c1-.2 2-.4 3.1-.4 7.2 0 13 5.8 13 13 0 1.9-.4 3.8-1.2 5.4.6.1 1.4.1 2.2-.1.6-1.7 1-3.5 1-5.4C40 15.7 33.2 9 25 9z"/><path fill="#DCEDC8" d="M38 24c0-7.2-5.8-13-13-13-1 0-2 .1-3 .4-1.8 3.2.6 6.3 3.7 6.2-.6 1.4-.6 3.1.3 4.3.9 1.2 2.6 1.3 4.1 1.2-.2.8-.1 2.2.5 2.7s1.9.5 2.5.3c.5 2 2.1 3.1 3.7 3.4.7-1.7 1.2-3.6 1.2-5.5z"/><path fill="#AED581" d="M31 12.5l.5.6.6.8s.1.1.2.3c.1.1.1.2.2.4.1.1.1.2.2.4.1.1.1.3.2.5s.1.4.1.6v.7c0 .2 0 .5-.1.7-.2 1-.7 1.9-1.2 2.5-.5.6-.9 1-.9 1s.5-.3 1.1-.8c.6-.5 1.4-1.4 1.9-2.4.1-.3.2-.5.3-.8.1-.3.1-.6.2-.9v-.9c-.9-1.1-2-2-3.3-2.7z"/></svg>