<svg xmlns="http://www.w3.org/2000/svg" width="528" height="528" viewBox="0 0 48 48"><path d="M29.253 16.513c-.117-.189-1.15-1.898-1.15-3.528 0-.979.376-1.585.65-2.026.218-.352.35-.563.35-.974 0-.898-.613-2.09-.851-2.474l-.283-.458L29.665 6l.287.456c.117.189 1.15 1.898 1.15 3.528 0 .98-.376 1.586-.65 2.028-.218.351-.35.563-.35.972 0 .898.613 2.09.851 2.474l-1.7 1.055zm-4.984 0c-.117-.189-1.15-1.898-1.15-3.528 0-.979.376-1.585.65-2.026.218-.352.35-.563.35-.974 0-.898-.613-2.09-.851-2.474l-.283-.458L24.681 6l.287.456c.117.189 1.15 1.898 1.15 3.528 0 .98-.376 1.586-.65 2.028-.218.351-.35.563-.35.972 0 .898.613 2.09.851 2.474l-1.7 1.055zm-4.985 0c-.117-.189-1.15-1.898-1.15-3.528 0-.979.376-1.585.65-2.026.218-.352.35-.563.35-.974 0-.898-.613-2.09-.851-2.474L18 7.053 19.696 6l.287.456c.117.189 1.15 1.898 1.15 3.528 0 .98-.376 1.586-.65 2.028-.218.351-.35.563-.35.972 0 .898.613 2.09.851 2.474l-1.7 1.055z" fill="#BCAAA4"/><path fill="none" stroke="#F50057" stroke-width="2" stroke-linecap="round" d="M30 33.001s7.74-4.721 10.5-7.293c3.979-3.708 2.5-5.708.584-6.5C38.778 18.256 36.063 21.311 34 23"/><path fill="#F50057" d="M17.777 37h12.445c7-4.583 7.777-22 7.777-22H10s1.556 17.417 7.777 22z"/><path fill="#AD1457" d="M4.3 36c1.59 2.836 9.792 6 19.7 6s18.109-3.164 19.7-6H4.3z"/></svg>